<svg width="40" height="40" viewBox="0 0 40 40" fill="none" xmlns="http://www.w3.org/2000/svg">
<path d="M18.3307 14.5807V20.714C18.3307 21.2974 18.6473 21.8474 19.1473 22.1474L24.3473 25.2307C24.9473 25.5807 25.714 25.3807 26.064 24.7974C26.414 24.1974 26.2307 23.4307 25.6307 23.0807L20.8473 20.2307V14.564C20.8307 13.8974 20.264 13.3307 19.5807 13.3307C18.8973 13.3307 18.3307 13.8974 18.3307 14.5807ZM34.9973 15.8307V7.01402C34.9973 6.26402 34.0973 5.89736 33.5807 6.43069L30.614 9.39736C27.5973 6.38069 23.2973 4.64736 18.5973 5.06402C11.614 5.69736 5.86401 11.314 5.09735 18.2974C4.09735 27.3307 11.1473 34.9974 19.9973 34.9974C27.6473 34.9974 33.964 29.264 34.8807 21.864C34.9973 20.864 34.214 19.9974 33.214 19.9974C32.3807 19.9974 31.6807 20.614 31.5807 21.4307C30.864 27.2474 25.8473 31.7474 19.8307 31.664C13.6473 31.5807 8.43068 26.364 8.33068 20.164C8.23068 13.664 13.514 8.33069 19.9973 8.33069C23.214 8.33069 26.1307 9.64736 28.2473 11.7474L24.764 15.2307C24.2307 15.764 24.5973 16.664 25.3473 16.664H34.164C34.6307 16.664 34.9973 16.2974 34.9973 15.8307Z" fill="url(#paint0_linear_166_17)"/>
<defs>
<linearGradient id="paint0_linear_166_17" x1="5.37747" y1="5.37763" x2="34.6223" y2="34.6225" gradientUnits="userSpaceOnUse">
<stop stop-color="#9ACEFD"/>
<stop offset="1" stop-color="#00359A"/>
</linearGradient>
</defs>
</svg>
