<svg width="20" height="20" viewBox="0 0 20 20" fill="none" xmlns="http://www.w3.org/2000/svg">
<path d="M1.23636 9.95C1.23636 5.13983 5.1315 1.23636 9.94105 1.23636C14.76 1.23636 18.6636 5.14029 18.6636 9.95C18.6636 14.7597 14.76 18.6636 9.94105 18.6636C5.1315 18.6636 1.23636 14.7602 1.23636 9.95ZM8.39636 7.7125C8.39636 6.83911 7.69089 6.13364 6.8175 6.13364C5.94411 6.13364 5.23864 6.83911 5.23864 7.7125C5.23864 8.58589 5.94411 9.29136 6.8175 9.29136C7.69089 9.29136 8.39636 8.58589 8.39636 7.7125ZM9.95 15.5564C11.8857 15.5564 13.5339 14.2952 14.3789 12.4859C14.5958 12.0358 14.2698 11.5036 13.7627 11.5036H6.1373C5.63027 11.5036 5.3043 12.0357 5.52103 12.4858C6.36597 14.2952 8.01426 15.5564 9.95 15.5564ZM11.5036 7.7125C11.5036 8.58589 12.2091 9.29136 13.0825 9.29136C13.9559 9.29136 14.6614 8.58589 14.6614 7.7125C14.6614 6.83911 13.9559 6.13364 13.0825 6.13364C12.2091 6.13364 11.5036 6.83911 11.5036 7.7125Z" fill="#FFF500" stroke="black" stroke-width="0.472727"/>
</svg>
