<svg width="120" height="120" viewBox="0 0 120 120" fill="none" xmlns="http://www.w3.org/2000/svg">
<g filter="url(#filter0_d_167_95)">
<path d="M91.475 86.4468C93.425 84.4968 93.425 81.3468 91.475 79.3968L72.075 59.9968L91.475 40.5968C93.425 38.6468 93.425 35.4968 91.475 33.5468C89.525 31.5968 86.375 31.5968 84.425 33.5468L61.475 56.4968C59.525 58.4468 59.525 61.5968 61.475 63.5468L84.375 86.4468C86.325 88.3968 89.525 88.3968 91.475 86.4468Z" fill="white"/>
<path d="M58.525 86.4468C60.475 84.4968 60.475 81.3468 58.525 79.3968L39.125 59.9968L58.525 40.5968C60.475 38.6468 60.475 35.4968 58.525 33.5468C56.575 31.5968 53.425 31.5968 51.475 33.5468L28.525 56.4968C26.575 58.4468 26.575 61.5968 28.525 63.5468L51.475 86.4968C53.375 88.3968 56.575 88.3968 58.525 86.4468Z" fill="white"/>
</g>
<defs>
<filter id="filter0_d_167_95" x="17.0625" y="26.0843" width="85.875" height="75.8313" filterUnits="userSpaceOnUse" color-interpolation-filters="sRGB">
<feFlood flood-opacity="0" result="BackgroundImageFix"/>
<feColorMatrix in="SourceAlpha" type="matrix" values="0 0 0 0 0 0 0 0 0 0 0 0 0 0 0 0 0 0 127 0" result="hardAlpha"/>
<feOffset dy="4"/>
<feGaussianBlur stdDeviation="5"/>
<feComposite in2="hardAlpha" operator="out"/>
<feColorMatrix type="matrix" values="0 0 0 0 0 0 0 0 0 0 0 0 0 0 0 0 0 0 0.25 0"/>
<feBlend mode="normal" in2="BackgroundImageFix" result="effect1_dropShadow_167_95"/>
<feBlend mode="normal" in="SourceGraphic" in2="effect1_dropShadow_167_95" result="shape"/>
</filter>
</defs>
</svg>
