<svg width="58" height="62" viewBox="0 0 58 62" fill="none" xmlns="http://www.w3.org/2000/svg">
<g clip-path="url(#clip0_50_38)" filter="url(#filter0_d_50_38)">
<g opacity="0.4" filter="url(#filter1_d_50_38)">
<path d="M22.6396 14.5865H35.4368V11.6069H22.6396V14.5865ZM19.7284 11.7292V11.7441C18.7295 11.8349 17.7412 12.0333 16.7798 12.3318V12.3207C16.7137 12.3485 16.6565 12.3615 16.6011 12.3893C16.5242 12.4079 16.4492 12.4357 16.3777 12.4709C16.1668 12.5395 15.9559 12.6211 15.7576 12.7045C15.6521 12.7453 15.5467 12.7991 15.4413 12.8399C15.2965 12.9085 15.1392 12.9901 14.9945 13.0587L14.6371 13.2645C14.5316 13.3183 14.4387 13.3869 14.3333 13.4499C13.7954 13.7966 13.2968 14.2027 12.8464 14.6644L12.8196 14.6922C12.6606 14.8776 12.5033 15.0482 12.3586 15.2262L12.3317 15.2521C10.8699 17.2694 10.1372 19.7559 10.2641 22.2757V23.0748H13.1502V22.2682C13.1502 18.7565 14.2689 16.5704 16.7583 15.4505C17.7091 15.0482 18.7134 14.7997 19.7356 14.7089H19.7624V11.7422L19.7284 11.7292ZM45.675 15.241L45.6625 15.2151C45.5141 15.0278 45.3551 14.8498 45.1871 14.6811L45.171 14.6532C44.7153 14.1953 44.2114 13.7874 43.6717 13.4388C43.5787 13.3831 43.493 13.3145 43.3822 13.2534C43.2714 13.1922 43.1445 13.1162 43.0122 13.0475C42.8836 12.9789 42.7227 12.8974 42.5655 12.8288C42.4743 12.788 42.3671 12.7342 42.2509 12.6934C42.049 12.61 41.8542 12.5284 41.6451 12.4598C41.5665 12.4338 41.5004 12.406 41.4217 12.3782C41.3431 12.3504 41.3002 12.3356 41.243 12.3096V12.3244C40.2798 12.0259 39.2915 11.8294 38.2926 11.7367V14.6885C39.3023 14.7775 40.2923 15.0278 41.2269 15.4301C42.4011 15.9122 43.3732 16.8003 43.9808 17.9444C44.6135 19.2812 44.9119 20.7608 44.8511 22.2478V23.0748H47.7355V22.2682C47.8641 19.7484 47.135 17.2602 45.675 15.241Z" fill="white"/>
</g>
<g filter="url(#filter2_d_50_38)">
<path d="M38.1251 9.49363V16.0593C38.1251 16.8866 37.4538 17.5566 36.6251 17.5566C35.7963 17.5566 35.1251 16.8866 35.1251 16.0593V9.50861C35.1176 8.68135 35.7851 8.00569 36.6138 8.00003C37.4426 7.99446 38.1194 8.65889 38.1251 9.48615V9.49363ZM22.375 9.51742V16.0669C22.375 16.8977 21.7029 17.5714 20.8741 17.5714C20.0452 17.5714 19.375 16.8977 19.375 16.0669V9.51742C19.375 8.68658 20.0452 8.01479 20.8741 8.01479C21.7029 8.01479 22.375 8.68658 22.375 9.51742ZM47.5 22.9082V39.0629C47.5 46.1075 43.5658 49.6667 35.769 49.6667H21.7132C13.9342 49.6667 10 46.1075 10 39.0629V22.9082H47.5ZM37.3247 37.6798C36.3591 37.6798 35.5901 38.4727 35.5901 39.4501C35.608 40.4275 36.377 41.2205 37.3247 41.2205C38.2725 41.2205 39.0415 40.4275 39.0415 39.4501C39.0415 38.4727 38.2725 37.6798 37.3247 37.6798ZM28.7589 37.6613C27.7933 37.6798 27.0243 38.4727 27.0243 39.4501C27.0243 40.4275 27.8112 41.2205 28.7589 41.2205C29.7067 41.2205 30.4757 40.4275 30.4757 39.4317C30.4578 38.4727 29.7067 37.6798 28.7589 37.6613ZM20.1753 37.6613C19.2096 37.6613 18.4406 38.4727 18.4585 39.4501C18.4585 40.4275 19.2275 41.2205 20.1753 41.2205C21.123 41.2205 21.892 40.4091 21.892 39.4317C21.892 38.4543 21.123 37.6613 20.1753 37.6613ZM37.3247 30.1188C36.3591 30.1188 35.608 30.9118 35.608 31.8892C35.608 32.8665 36.377 33.6595 37.3247 33.6595C38.2725 33.6595 39.0415 32.8665 39.0415 31.8892C39.0415 30.9118 38.2725 30.1188 37.3247 30.1188ZM28.7589 30.1003C27.7933 30.1188 27.0243 30.9118 27.0243 31.8892C27.0243 32.8665 27.8112 33.6595 28.7589 33.6595C29.7067 33.6595 30.4757 32.8665 30.4757 31.8707C30.4757 30.9118 29.7067 30.1188 28.7589 30.1003ZM20.1931 30.1003C19.2275 30.1003 18.4585 30.9118 18.4585 31.8892C18.4585 32.8665 19.2275 33.6595 20.1753 33.6595C21.1409 33.6595 21.9099 32.8481 21.892 31.8707C21.892 30.8933 21.123 30.1003 20.1931 30.1003Z" fill="white"/>
</g>
</g>
<defs>
<filter id="filter0_d_50_38" x="-6" y="-4" width="70" height="70" filterUnits="userSpaceOnUse" color-interpolation-filters="sRGB">
<feFlood flood-opacity="0" result="BackgroundImageFix"/>
<feColorMatrix in="SourceAlpha" type="matrix" values="0 0 0 0 0 0 0 0 0 0 0 0 0 0 0 0 0 0 127 0" result="hardAlpha"/>
<feOffset dy="2"/>
<feGaussianBlur stdDeviation="5"/>
<feComposite in2="hardAlpha" operator="out"/>
<feColorMatrix type="matrix" values="0 0 0 0 0 0 0 0 0 0 0 0 0 0 0 0 0 0 0.25 0"/>
<feBlend mode="normal" in2="BackgroundImageFix" result="effect1_dropShadow_50_38"/>
<feBlend mode="normal" in="SourceGraphic" in2="effect1_dropShadow_50_38" result="shape"/>
</filter>
<filter id="filter1_d_50_38" x="6.25" y="11.6069" width="45.5" height="19.4679" filterUnits="userSpaceOnUse" color-interpolation-filters="sRGB">
<feFlood flood-opacity="0" result="BackgroundImageFix"/>
<feColorMatrix in="SourceAlpha" type="matrix" values="0 0 0 0 0 0 0 0 0 0 0 0 0 0 0 0 0 0 127 0" result="hardAlpha"/>
<feOffset dy="4"/>
<feGaussianBlur stdDeviation="2"/>
<feComposite in2="hardAlpha" operator="out"/>
<feColorMatrix type="matrix" values="0 0 0 0 0 0 0 0 0 0 0 0 0 0 0 0 0 0 0.25 0"/>
<feBlend mode="normal" in2="BackgroundImageFix" result="effect1_dropShadow_50_38"/>
<feBlend mode="normal" in="SourceGraphic" in2="effect1_dropShadow_50_38" result="shape"/>
</filter>
<filter id="filter2_d_50_38" x="0" y="0" width="57.5" height="61.6667" filterUnits="userSpaceOnUse" color-interpolation-filters="sRGB">
<feFlood flood-opacity="0" result="BackgroundImageFix"/>
<feColorMatrix in="SourceAlpha" type="matrix" values="0 0 0 0 0 0 0 0 0 0 0 0 0 0 0 0 0 0 127 0" result="hardAlpha"/>
<feOffset dy="2"/>
<feGaussianBlur stdDeviation="5"/>
<feComposite in2="hardAlpha" operator="out"/>
<feColorMatrix type="matrix" values="0 0 0 0 0 0 0 0 0 0 0 0 0 0 0 0 0 0 0.25 0"/>
<feBlend mode="normal" in2="BackgroundImageFix" result="effect1_dropShadow_50_38"/>
<feBlend mode="normal" in="SourceGraphic" in2="effect1_dropShadow_50_38" result="shape"/>
</filter>
<clipPath id="clip0_50_38">
<rect width="50" height="50" fill="white" transform="translate(4 4)"/>
</clipPath>
</defs>
</svg>
