<svg width="50" height="50" viewBox="0 0 50 50" fill="none" xmlns="http://www.w3.org/2000/svg">
<path d="M43.75 39.5833V10.4167C43.75 8.125 41.875 6.25 39.5833 6.25H10.4167C8.125 6.25 6.25 8.125 6.25 10.4167V39.5833C6.25 41.875 8.125 43.75 10.4167 43.75H39.5833C41.875 43.75 43.75 41.875 43.75 39.5833ZM18.5417 29.125L22.9167 34.3958L29.375 26.0833C29.7917 25.5417 30.625 25.5417 31.0417 26.1042L38.3542 35.8542C38.875 36.5417 38.375 37.5208 37.5208 37.5208H12.5417C11.6667 37.5208 11.1875 36.5208 11.7292 35.8333L16.9167 29.1667C17.3125 28.625 18.1042 28.6042 18.5417 29.125Z" fill="black" fill-opacity="0.3"/>
</svg>
