<svg width="20" height="20" viewBox="0 0 20 20" fill="none" xmlns="http://www.w3.org/2000/svg">
<path d="M10.5667 5.52385C11.15 5.32385 11.5833 4.77385 11.65 4.15719C11.6917 3.76552 11.6083 3.39885 11.4167 3.09885L10.35 1.24885C10.1917 0.973853 9.79167 0.973853 9.625 1.24885L8.55833 3.09885C8.41667 3.34885 8.33333 3.64052 8.33333 3.95719C8.33333 5.05719 9.41667 5.91552 10.5667 5.52385ZM13.775 13.8905L12.9417 13.0572L12.0417 13.9489C10.9583 15.0322 9.05833 15.0405 7.96667 13.9489L7.075 13.0572L6.16667 13.9489C5.625 14.4905 4.9 14.7905 4.13333 14.7905C3.525 14.7905 2.96667 14.5989 2.5 14.2822V17.2905C2.5 18.2072 3.25 18.9572 4.16667 18.9572H15.8333C16.75 18.9572 17.5 18.2072 17.5 17.2905V14.2822C16.875 14.7072 16.075 14.9072 15.2167 14.7155C14.6667 14.5989 14.175 14.2905 13.775 13.8905ZM15 8.12385H10.8333V7.29052C10.8333 6.83219 10.4583 6.45719 10 6.45719C9.54167 6.45719 9.16667 6.83219 9.16667 7.29052V8.12385H5C3.61667 8.12385 2.5 9.24052 2.5 10.6239V11.8405C2.5 12.5489 2.91667 13.2322 3.59167 13.4572C4.2 13.6572 4.85833 13.5072 5.28333 13.0739L7.06667 11.2989L8.84167 13.0739C9.475 13.7072 10.5167 13.7072 11.15 13.0739L12.9333 11.2989L14.7083 13.0739C15.0667 13.4322 15.5667 13.5989 16.0833 13.5322C16.9083 13.4239 17.4917 12.6489 17.4917 11.8155V10.6322C17.5 9.24052 16.3833 8.12385 15 8.12385Z" fill="#FF6B00"/>
</svg>
