<svg width="68" height="60" viewBox="0 0 68 60" fill="none" xmlns="http://www.w3.org/2000/svg">
<g filter="url(#filter0_d_68_24)">
<path d="M41.5 8.00001C37.3243 8.00481 33.321 9.66571 30.3683 12.6184C27.4157 15.5711 25.7548 19.5743 25.75 23.75C25.7512 24.3601 25.7887 24.9696 25.8622 25.5752H13.0206C12.6228 25.5752 12.2413 25.7333 11.96 26.0146C11.6787 26.2959 11.5206 26.6774 11.5206 27.0752C11.5206 27.473 11.6787 27.8546 11.96 28.1359C12.2413 28.4172 12.6228 28.5752 13.0206 28.5752H21.0207C20.0386 29.4923 19.2307 30.5797 18.6361 31.7847H15.2177C14.8199 31.7847 14.4384 31.9427 14.1571 32.224C13.8758 32.5053 13.7177 32.8869 13.7177 33.2847C13.7177 33.6825 13.8758 34.064 14.1571 34.3453C14.4384 34.6266 14.8199 34.7847 15.2177 34.7847H17.6325C17.5279 35.3607 17.4689 35.944 17.4562 36.5293H11.5C11.1022 36.5293 10.7206 36.6874 10.4393 36.9687C10.158 37.25 10 37.6315 10 38.0293C10 38.4272 10.158 38.8087 10.4393 39.09C10.7206 39.3713 11.1022 39.5293 11.5 39.5293H17.8466C18.074 40.3822 18.4035 41.2045 18.8278 41.9785H15.2177C14.8199 41.9785 14.4384 42.1366 14.1571 42.4179C13.8758 42.6992 13.7177 43.0807 13.7177 43.4785C13.7177 43.8764 13.8758 44.2579 14.1571 44.5392C14.4384 44.8205 14.8199 44.9785 15.2177 44.9785H21.1946C22.6158 46.2654 24.3476 47.16 26.2195 47.5743C28.0915 47.9886 30.039 47.9082 31.8705 47.3411C33.7019 46.774 35.3541 45.7398 36.6644 44.3402C37.9747 42.9405 38.8979 41.2238 39.3431 39.359C40.057 39.4677 40.7779 39.5246 41.5 39.5293C43.572 39.5322 45.6243 39.1265 47.5395 38.3356C49.4547 37.5446 51.1951 36.3838 52.6613 34.9197C54.1275 33.4555 55.2907 31.7166 56.0843 29.8026C56.8779 27.8885 57.2864 25.8367 57.2864 23.7647C57.2864 21.6926 56.8779 19.6408 56.0843 17.7268C55.2907 15.8127 54.1275 14.0739 52.6613 12.6097C51.1951 11.1455 49.4547 9.98481 47.5395 9.19381C45.6243 8.40281 43.572 7.99721 41.5 8.00001ZM28.5683 44.835C26.9603 44.835 25.3885 44.3582 24.0515 43.4648C22.7146 42.5715 21.6725 41.3018 21.0572 39.8162C20.4418 38.3306 20.2808 36.696 20.5945 35.1189C20.9082 33.5418 21.6825 32.0932 22.8195 30.9562C23.9565 29.8192 25.4052 29.0449 26.9822 28.7312C28.5593 28.4175 30.194 28.5785 31.6795 29.1938C33.1651 29.8092 34.4348 30.8512 35.3282 32.1882C36.2215 33.5252 36.6983 35.097 36.6983 36.705C36.6958 38.8604 35.8384 40.9268 34.3143 42.4509C32.7902 43.9751 30.7237 44.8324 28.5683 44.835ZM41.5 36.5293C40.8851 36.524 40.2716 36.4718 39.6647 36.3729C39.5788 33.5465 38.418 30.8593 36.4191 28.8593C34.4201 26.8592 31.7336 25.697 28.9073 25.6094C28.8081 24.9945 28.7556 24.3729 28.75 23.75C28.7529 21.2254 29.5043 18.7584 30.9093 16.6608C32.3143 14.5633 34.3098 12.9295 36.6433 11.9661C38.9769 11.0027 41.5437 10.7528 44.0192 11.2482C46.4948 11.7436 48.7678 12.9619 50.5509 14.7491C52.334 16.5363 53.5471 18.8121 54.0368 21.2888C54.5265 23.7655 54.2708 26.3317 53.302 28.663C52.3332 30.9944 50.6948 32.986 48.5941 34.3862C46.4933 35.7864 44.0246 36.5322 41.5 36.5293ZM33.2822 33.1015C33.4215 33.2407 33.532 33.4061 33.6074 33.588C33.6828 33.77 33.7216 33.965 33.7216 34.162C33.7216 34.359 33.6828 34.554 33.6074 34.736C33.532 34.9179 33.4215 35.0833 33.2822 35.2225L28.1962 40.3099C28.0571 40.4493 27.8917 40.5598 27.7097 40.6353C27.5278 40.7107 27.3327 40.7494 27.1357 40.7493L27.0507 40.7463C26.8394 40.7345 26.633 40.678 26.4452 40.5805C26.2573 40.4831 26.0922 40.3469 25.9609 40.1809L23.7373 37.3742C23.6144 37.22 23.5231 37.0431 23.4687 36.8535C23.4144 36.664 23.3979 36.4656 23.4203 36.2697C23.4427 36.0738 23.5035 35.8842 23.5992 35.7118C23.695 35.5395 23.8238 35.3877 23.9783 35.2651C24.1328 35.1426 24.31 35.0518 24.4996 34.9978C24.6893 34.9439 24.8877 34.9278 25.0836 34.9507C25.2794 34.9735 25.4689 35.0347 25.641 35.1309C25.8132 35.227 25.9647 35.3562 26.0869 35.511L27.2646 36.9978L31.1611 33.1015C31.3003 32.9622 31.4657 32.8517 31.6476 32.7762C31.8296 32.7008 32.0247 32.662 32.2216 32.662C32.4186 32.662 32.6137 32.7008 32.7956 32.7762C32.9776 32.8517 33.1429 32.9622 33.2822 33.1015ZM46.2197 26.5243C46.4944 26.8118 46.6436 27.1967 46.6345 27.5942C46.6254 27.9917 46.4588 28.3693 46.1713 28.644C46.029 28.78 45.8612 28.8866 45.6777 28.9578C45.4941 29.0289 45.2983 29.0633 45.1015 29.0588C44.704 29.0497 44.3264 28.8831 44.0517 28.5956L40.4247 24.8002C40.1577 24.5216 40.0086 24.1505 40.0087 23.7646V16.1372C40.0087 15.7394 40.1667 15.3579 40.448 15.0766C40.7293 14.7953 41.1109 14.6372 41.5087 14.6372C41.9065 14.6372 42.288 14.7953 42.5693 15.0766C42.8507 15.3579 43.0087 15.7394 43.0087 16.1372V23.1625L46.2197 26.5243Z" fill="white"/>
</g>
<defs>
<filter id="filter0_d_68_24" x="0" y="0" width="67.2864" height="59.8351" filterUnits="userSpaceOnUse" color-interpolation-filters="sRGB">
<feFlood flood-opacity="0" result="BackgroundImageFix"/>
<feColorMatrix in="SourceAlpha" type="matrix" values="0 0 0 0 0 0 0 0 0 0 0 0 0 0 0 0 0 0 127 0" result="hardAlpha"/>
<feOffset dy="2"/>
<feGaussianBlur stdDeviation="5"/>
<feComposite in2="hardAlpha" operator="out"/>
<feColorMatrix type="matrix" values="0 0 0 0 0 0 0 0 0 0 0 0 0 0 0 0 0 0 0.25 0"/>
<feBlend mode="normal" in2="BackgroundImageFix" result="effect1_dropShadow_68_24"/>
<feBlend mode="normal" in="SourceGraphic" in2="effect1_dropShadow_68_24" result="shape"/>
</filter>
</defs>
</svg>
