<svg width="19" height="19" viewBox="0 0 19 19" fill="none" xmlns="http://www.w3.org/2000/svg">
<path d="M4.98941 14.5166C4.98941 15.3267 5.65223 15.9896 6.46236 15.9896H12.3542C13.1643 15.9896 13.8271 15.3267 13.8271 14.5166V7.15186C13.8271 6.34174 13.1643 5.67891 12.3542 5.67891H6.46236C5.65223 5.67891 4.98941 6.34174 4.98941 7.15186V14.5166ZM13.8271 3.46948H11.9859L11.463 2.94658C11.3305 2.81401 11.139 2.733 10.9475 2.733H7.86903C7.67754 2.733 7.48606 2.81401 7.3535 2.94658L6.8306 3.46948H4.98941C4.58434 3.46948 4.25293 3.80089 4.25293 4.20595C4.25293 4.61102 4.58434 4.94243 4.98941 4.94243H13.8271C14.2322 4.94243 14.5636 4.61102 14.5636 4.20595C14.5636 3.80089 14.2322 3.46948 13.8271 3.46948Z" fill="white"/>
</svg>
