<svg width="40" height="40" viewBox="0 0 40 40" fill="none" xmlns="http://www.w3.org/2000/svg">
<g clip-path="url(#clip0_599_394)">
<g filter="url(#filter0_d_599_394)">
<path d="M19.9998 10C21.8332 10 23.3332 11.5 23.3332 13.3333C23.3332 15.1667 21.8332 16.6667 19.9998 16.6667C18.1665 16.6667 16.6665 15.1667 16.6665 13.3333C16.6665 11.5 18.1665 10 19.9998 10ZM19.9998 26.6667C24.4998 26.6667 29.6665 28.8167 29.9998 30H9.99984C10.3832 28.8 15.5165 26.6667 19.9998 26.6667ZM19.9998 6.66667C16.3165 6.66667 13.3332 9.65 13.3332 13.3333C13.3332 17.0167 16.3165 20 19.9998 20C23.6832 20 26.6665 17.0167 26.6665 13.3333C26.6665 9.65 23.6832 6.66667 19.9998 6.66667ZM19.9998 23.3333C15.5498 23.3333 6.6665 25.5667 6.6665 30V33.3333H33.3332V30C33.3332 25.5667 24.4498 23.3333 19.9998 23.3333Z" fill="url(#paint0_linear_599_394)"/>
</g>
</g>
<defs>
<filter id="filter0_d_599_394" x="1.6665" y="3.66667" width="36.6665" height="36.6667" filterUnits="userSpaceOnUse" color-interpolation-filters="sRGB">
<feFlood flood-opacity="0" result="BackgroundImageFix"/>
<feColorMatrix in="SourceAlpha" type="matrix" values="0 0 0 0 0 0 0 0 0 0 0 0 0 0 0 0 0 0 127 0" result="hardAlpha"/>
<feOffset dy="2"/>
<feGaussianBlur stdDeviation="2.5"/>
<feComposite in2="hardAlpha" operator="out"/>
<feColorMatrix type="matrix" values="0 0 0 0 0 0 0 0 0 0 0 0 0 0 0 0 0 0 0.25 0"/>
<feBlend mode="normal" in2="BackgroundImageFix" result="effect1_dropShadow_599_394"/>
<feBlend mode="normal" in="SourceGraphic" in2="effect1_dropShadow_599_394" result="shape"/>
</filter>
<linearGradient id="paint0_linear_599_394" x1="6.99976" y1="7.00004" x2="32.9998" y2="33" gradientUnits="userSpaceOnUse">
<stop offset="0.0674958" stop-color="#00359A"/>
</linearGradient>
<clipPath id="clip0_599_394">
<rect width="40" height="40" fill="white"/>
</clipPath>
</defs>
</svg>
