<svg width="50" height="29" viewBox="0 0 50 29" fill="none" xmlns="http://www.w3.org/2000/svg">
<rect width="49.7122" height="28.6222" rx="14.3111" fill="black"/>
<path d="M20.9894 19.5166C20.9894 20.3267 21.6522 20.9896 22.4624 20.9896H28.3542C29.1643 20.9896 29.8271 20.3267 29.8271 19.5166V12.1519C29.8271 11.3417 29.1643 10.6789 28.3542 10.6789H22.4624C21.6522 10.6789 20.9894 11.3417 20.9894 12.1519V19.5166ZM29.8271 8.46948H27.9859L27.463 7.94658C27.3305 7.81401 27.139 7.733 26.9475 7.733H23.869C23.6775 7.733 23.4861 7.81401 23.3535 7.94658L22.8306 8.46948H20.9894C20.5843 8.46948 20.2529 8.80089 20.2529 9.20595C20.2529 9.61102 20.5843 9.94243 20.9894 9.94243H29.8271C30.2322 9.94243 30.5636 9.61102 30.5636 9.20595C30.5636 8.80089 30.2322 8.46948 29.8271 8.46948Z" fill="white"/>
</svg>
