<svg width="48" height="16" viewBox="0 0 48 16" fill="none" xmlns="http://www.w3.org/2000/svg">
<path d="M5.25 15H0.761364V0.454545H5.44886C6.85985 0.454545 8.06723 0.745738 9.07102 1.32812C10.0748 1.90578 10.8442 2.73674 11.3793 3.82102C11.9143 4.90057 12.1818 6.19318 12.1818 7.69886C12.1818 9.21401 11.9119 10.5185 11.3722 11.6122C10.8324 12.7012 10.0464 13.5393 9.0142 14.1264C7.98201 14.7088 6.72727 15 5.25 15ZM2.52273 13.4375H5.13636C6.33902 13.4375 7.3357 13.2055 8.12642 12.7415C8.91714 12.2775 9.50663 11.617 9.89489 10.7599C10.2831 9.90294 10.4773 8.88258 10.4773 7.69886C10.4773 6.52462 10.2855 5.51373 9.90199 4.66619C9.51847 3.81392 8.94555 3.16051 8.18324 2.70597C7.42093 2.24669 6.47159 2.01705 5.33523 2.01705H2.52273V13.4375ZM19.3409 15.2273C18.3561 15.2273 17.492 14.9929 16.7486 14.5241C16.0099 14.0554 15.4323 13.3996 15.0156 12.5568C14.6037 11.714 14.3977 10.7292 14.3977 9.60227C14.3977 8.46591 14.6037 7.47396 15.0156 6.62642C15.4323 5.77888 16.0099 5.12074 16.7486 4.65199C17.492 4.18324 18.3561 3.94886 19.3409 3.94886C20.3258 3.94886 21.1875 4.18324 21.9261 4.65199C22.6695 5.12074 23.2472 5.77888 23.6591 6.62642C24.0758 7.47396 24.2841 8.46591 24.2841 9.60227C24.2841 10.7292 24.0758 11.714 23.6591 12.5568C23.2472 13.3996 22.6695 14.0554 21.9261 14.5241C21.1875 14.9929 20.3258 15.2273 19.3409 15.2273ZM19.3409 13.7216C20.089 13.7216 20.7045 13.5298 21.1875 13.1463C21.6705 12.7628 22.0279 12.2585 22.2599 11.6335C22.492 11.0085 22.608 10.3314 22.608 9.60227C22.608 8.87311 22.492 8.19366 22.2599 7.56392C22.0279 6.93419 21.6705 6.42519 21.1875 6.03693C20.7045 5.64867 20.089 5.45455 19.3409 5.45455C18.5928 5.45455 17.9773 5.64867 17.4943 6.03693C17.0114 6.42519 16.6539 6.93419 16.4219 7.56392C16.1899 8.19366 16.0739 8.87311 16.0739 9.60227C16.0739 10.3314 16.1899 11.0085 16.4219 11.6335C16.6539 12.2585 17.0114 12.7628 17.4943 13.1463C17.9773 13.5298 18.5928 13.7216 19.3409 13.7216ZM28.5188 8.4375V15H26.8427V4.09091H28.462V5.79545H28.604C28.8597 5.24148 29.248 4.7964 29.7688 4.46023C30.2897 4.11932 30.962 3.94886 31.7859 3.94886C32.5245 3.94886 33.1708 4.10038 33.7248 4.40341C34.2788 4.7017 34.7096 5.15625 35.0174 5.76705C35.3252 6.37311 35.479 7.14015 35.479 8.06818V15H33.8029V8.18182C33.8029 7.32481 33.5804 6.6572 33.1353 6.17898C32.6902 5.69602 32.0794 5.45455 31.3029 5.45455C30.7679 5.45455 30.2897 5.57055 29.8683 5.80256C29.4516 6.03456 29.1225 6.37311 28.881 6.81818C28.6396 7.26326 28.5188 7.80303 28.5188 8.4375ZM43.1158 15.2273C42.0646 15.2273 41.1579 14.9953 40.3956 14.5312C39.638 14.0625 39.0533 13.4091 38.6413 12.571C38.2341 11.7282 38.0305 10.7481 38.0305 9.63068C38.0305 8.51326 38.2341 7.52841 38.6413 6.67614C39.0533 5.81913 39.6262 5.15152 40.3601 4.6733C41.0987 4.19034 41.9605 3.94886 42.9453 3.94886C43.5135 3.94886 44.0746 4.04356 44.6286 4.23295C45.1825 4.42235 45.6868 4.73011 46.1413 5.15625C46.5959 5.57765 46.9581 6.13636 47.228 6.83239C47.4979 7.52841 47.6328 8.38542 47.6328 9.40341V10.1136H39.2237V8.66477H45.9283C45.9283 8.04924 45.8052 7.5 45.5589 7.01705C45.3175 6.53409 44.9718 6.15294 44.522 5.87358C44.0769 5.59422 43.5514 5.45455 42.9453 5.45455C42.2777 5.45455 41.7 5.62026 41.2124 5.9517C40.7294 6.27841 40.3577 6.70455 40.0973 7.23011C39.8369 7.75568 39.7067 8.31913 39.7067 8.92045V9.88636C39.7067 10.7102 39.8487 11.4086 40.1328 11.9815C40.4216 12.5497 40.8217 12.983 41.3331 13.2812C41.8445 13.5748 42.4387 13.7216 43.1158 13.7216C43.5561 13.7216 43.9538 13.66 44.3089 13.5369C44.6688 13.4091 44.9789 13.2197 45.2393 12.9688C45.4998 12.7131 45.701 12.3958 45.843 12.017L47.4624 12.4716C47.2919 13.0208 47.0054 13.5038 46.603 13.9205C46.2005 14.3324 45.7034 14.6544 45.1115 14.8864C44.5196 15.1136 43.8544 15.2273 43.1158 15.2273Z" fill="black"/>
</svg>
