<svg width="40" height="40" viewBox="0 0 40 40" fill="none" xmlns="http://www.w3.org/2000/svg">
<path d="M9.99984 22.1667L12.0165 23.0667C13.4737 23.7284 15.0482 24.0929 16.648 24.1387C18.2477 24.1844 19.8405 23.9107 21.3332 23.3333C22.4629 22.883 23.6752 22.6769 24.8903 22.7286C26.1054 22.7803 27.2958 23.0886 28.3832 23.6333L33.3832 26.1V8.96667L29.9165 7.3C28.4062 6.54729 26.7537 6.12252 25.0676 6.05358C23.3815 5.98464 21.6999 6.27309 20.1332 6.9C19.0426 7.32185 17.8779 7.51865 16.7093 7.47855C15.5407 7.43845 14.3923 7.16228 13.3332 6.66667L9.99984 5.18333V3.33333H6.6665V36.6667H9.99984V22.1667Z" fill="#A4A4A4"/>
</svg>
