<svg width="40" height="40" viewBox="0 0 40 40" fill="none" xmlns="http://www.w3.org/2000/svg">
<path d="M24.3165 4.31667C23.6832 3.68333 22.8332 3.33333 21.9498 3.33333H9.99984C8.1665 3.33333 6.6665 4.83333 6.6665 6.66667V33.3333C6.6665 35.1667 8.14984 36.6667 9.98317 36.6667H29.9998C31.8332 36.6667 33.3332 35.1667 33.3332 33.3333V14.7167C33.3332 13.8333 32.9832 12.9833 32.3498 12.3667L24.3165 4.31667ZM24.9998 30H14.9998C14.0832 30 13.3332 29.25 13.3332 28.3333C13.3332 27.4167 14.0832 26.6667 14.9998 26.6667H24.9998C25.9165 26.6667 26.6665 27.4167 26.6665 28.3333C26.6665 29.25 25.9165 30 24.9998 30ZM24.9998 23.3333H14.9998C14.0832 23.3333 13.3332 22.5833 13.3332 21.6667C13.3332 20.75 14.0832 20 14.9998 20H24.9998C25.9165 20 26.6665 20.75 26.6665 21.6667C26.6665 22.5833 25.9165 23.3333 24.9998 23.3333ZM21.6665 13.3333V5.83333L30.8332 15H23.3332C22.4165 15 21.6665 14.25 21.6665 13.3333Z" fill="#A4A4A4"/>
</svg>
