<svg width="40" height="40" viewBox="0 0 40 40" fill="none" xmlns="http://www.w3.org/2000/svg">
<path d="M22.3401 5.00292C13.8567 4.76958 6.90672 11.5696 6.90672 20.0029H3.92338C3.17338 20.0029 2.80672 20.9029 3.34005 21.4196L7.99005 26.0863C8.32338 26.4196 8.84005 26.4196 9.17338 26.0863L13.8234 21.4196C14.3567 20.9029 13.9734 20.0029 13.2401 20.0029H10.2401C10.2401 13.5029 15.5401 8.25292 22.0734 8.33625C28.2734 8.41958 33.4901 13.6362 33.5734 19.8362C33.6567 26.3529 28.4067 31.6696 21.9067 31.6696C19.2234 31.6696 16.7401 30.7529 14.7734 29.2029C14.1067 28.6863 13.1734 28.7362 12.5734 29.3363C11.8734 30.0529 11.9234 31.2196 12.7067 31.8363C15.2401 33.8196 18.4401 35.0029 21.9067 35.0029C30.3234 35.0029 37.1401 28.0529 36.9067 19.5696C36.6901 11.7529 30.1567 5.21958 22.3401 5.00292ZM21.4901 13.3363C20.8067 13.3363 20.2401 13.9029 20.2401 14.5863V20.7196C20.2401 21.3029 20.5567 21.8529 21.0567 22.1529L26.2567 25.2362C26.8567 25.5863 27.6234 25.3862 27.9734 24.8029C28.3234 24.2029 28.1234 23.4363 27.5401 23.0863L22.7401 20.2362V14.5696C22.7401 13.9029 22.1901 13.3363 21.4901 13.3363Z" fill="url(#paint0_linear_166_23)"/>
<defs>
<linearGradient id="paint0_linear_166_23" x1="3.5102" y1="5.3722" x2="32.5572" y2="38.1163" gradientUnits="userSpaceOnUse">
<stop stop-color="#9ACEFD"/>
<stop offset="1" stop-color="#00359A"/>
</linearGradient>
</defs>
</svg>
