<svg width="16" height="18" viewBox="0 0 16 18" fill="none" xmlns="http://www.w3.org/2000/svg">
<path d="M12.1667 0.666656C11.7083 0.666656 11.3333 1.04166 11.3333 1.49999V2.33332H4.66667V1.49999C4.66667 1.04166 4.29167 0.666656 3.83333 0.666656C3.375 0.666656 3 1.04166 3 1.49999V2.33332H2.16667C1.24167 2.33332 0.508333 3.08332 0.508333 3.99999L0.5 15.6667C0.5 16.5833 1.24167 17.3333 2.16667 17.3333H13.8333C14.75 17.3333 15.5 16.5833 15.5 15.6667V3.99999C15.5 3.08332 14.75 2.33332 13.8333 2.33332H13V1.49999C13 1.04166 12.625 0.666656 12.1667 0.666656ZM13.8333 15.6667H2.16667V7.33332H13.8333V15.6667ZM7.16667 9.83332C7.16667 9.37499 7.54167 8.99999 8 8.99999C8.45833 8.99999 8.83333 9.37499 8.83333 9.83332C8.83333 10.2917 8.45833 10.6667 8 10.6667C7.54167 10.6667 7.16667 10.2917 7.16667 9.83332ZM3.83333 9.83332C3.83333 9.37499 4.20833 8.99999 4.66667 8.99999C5.125 8.99999 5.5 9.37499 5.5 9.83332C5.5 10.2917 5.125 10.6667 4.66667 10.6667C4.20833 10.6667 3.83333 10.2917 3.83333 9.83332ZM10.5 9.83332C10.5 9.37499 10.875 8.99999 11.3333 8.99999C11.7917 8.99999 12.1667 9.37499 12.1667 9.83332C12.1667 10.2917 11.7917 10.6667 11.3333 10.6667C10.875 10.6667 10.5 10.2917 10.5 9.83332ZM7.16667 13.1667C7.16667 12.7083 7.54167 12.3333 8 12.3333C8.45833 12.3333 8.83333 12.7083 8.83333 13.1667C8.83333 13.625 8.45833 14 8 14C7.54167 14 7.16667 13.625 7.16667 13.1667ZM3.83333 13.1667C3.83333 12.7083 4.20833 12.3333 4.66667 12.3333C5.125 12.3333 5.5 12.7083 5.5 13.1667C5.5 13.625 5.125 14 4.66667 14C4.20833 14 3.83333 13.625 3.83333 13.1667ZM10.5 13.1667C10.5 12.7083 10.875 12.3333 11.3333 12.3333C11.7917 12.3333 12.1667 12.7083 12.1667 13.1667C12.1667 13.625 11.7917 14 11.3333 14C10.875 14 10.5 13.625 10.5 13.1667Z" fill="black" fill-opacity="0.4"/>
</svg>
