<svg width="82" height="82" viewBox="0 0 82 82" fill="none" xmlns="http://www.w3.org/2000/svg">
<path d="M41.0001 0.166626C18.4601 0.166626 0.166748 18.46 0.166748 41C0.166748 63.54 18.4601 81.8333 41.0001 81.8333C63.5401 81.8333 81.8334 63.54 81.8334 41C81.8334 18.46 63.5401 0.166626 41.0001 0.166626ZM29.9342 58.5175L15.2751 43.8583C13.6826 42.2658 13.6826 39.6933 15.2751 38.1008C16.8676 36.5083 19.4401 36.5083 21.0326 38.1008L32.8334 49.8608L60.9267 21.7675C62.5192 20.175 65.0918 20.175 66.6843 21.7675C68.2768 23.36 68.2768 25.9325 66.6843 27.525L35.6917 58.5175C34.1401 60.11 31.5267 60.11 29.9342 58.5175Z" fill="url(#paint0_linear_496_683)"/>
<defs>
<linearGradient id="paint0_linear_496_683" x1="41.0001" y1="0.166626" x2="41.0001" y2="81.8333" gradientUnits="userSpaceOnUse">
<stop stop-color="#9ACEFD"/>
<stop offset="1" stop-color="#001A4D"/>
</linearGradient>
</defs>
</svg>
