<svg width="63" height="16" viewBox="0 0 63 16" fill="none" xmlns="http://www.w3.org/2000/svg">
<path d="M12.4659 5H10.7045C10.6004 4.49337 10.4181 4.0483 10.1577 3.66477C9.90199 3.28125 9.58949 2.95928 9.22017 2.69886C8.85559 2.43371 8.45076 2.23485 8.00568 2.10227C7.56061 1.9697 7.09659 1.90341 6.61364 1.90341C5.73295 1.90341 4.93513 2.12595 4.22017 2.57102C3.50994 3.0161 2.94413 3.67188 2.52273 4.53835C2.10606 5.40483 1.89773 6.4678 1.89773 7.72727C1.89773 8.98674 2.10606 10.0497 2.52273 10.9162C2.94413 11.7827 3.50994 12.4384 4.22017 12.8835C4.93513 13.3286 5.73295 13.5511 6.61364 13.5511C7.09659 13.5511 7.56061 13.4848 8.00568 13.3523C8.45076 13.2197 8.85559 13.0232 9.22017 12.7628C9.58949 12.4976 9.90199 12.1733 10.1577 11.7898C10.4181 11.4015 10.6004 10.9564 10.7045 10.4545H12.4659C12.3333 11.1979 12.0919 11.8632 11.7415 12.4503C11.3911 13.0374 10.9555 13.5369 10.4347 13.9489C9.91383 14.3561 9.32907 14.6662 8.6804 14.8793C8.03646 15.0923 7.34754 15.1989 6.61364 15.1989C5.37311 15.1989 4.26989 14.8958 3.30398 14.2898C2.33807 13.6837 1.57813 12.822 1.02415 11.7045C0.470171 10.5871 0.193182 9.26136 0.193182 7.72727C0.193182 6.19318 0.470171 4.86742 1.02415 3.75C1.57813 2.63258 2.33807 1.77083 3.30398 1.16477C4.26989 0.558712 5.37311 0.255681 6.61364 0.255681C7.34754 0.255681 8.03646 0.362215 8.6804 0.575284C9.32907 0.788352 9.91383 1.10085 10.4347 1.51278C10.9555 1.91998 11.3911 2.41714 11.7415 3.00426C12.0919 3.58665 12.3333 4.25189 12.4659 5ZM18.2951 15.2557C17.6038 15.2557 16.9764 15.1255 16.413 14.8651C15.8496 14.5999 15.4021 14.2188 15.0707 13.7216C14.7392 13.2197 14.5735 12.6136 14.5735 11.9034C14.5735 11.2784 14.6966 10.7718 14.9428 10.3835C15.189 9.99053 15.5181 9.68276 15.93 9.46023C16.342 9.23769 16.7965 9.07197 17.2937 8.96307C17.7956 8.84943 18.2998 8.75947 18.8065 8.69318C19.4693 8.60795 20.0067 8.54403 20.4187 8.50142C20.8353 8.45407 21.1384 8.37595 21.3278 8.26705C21.5219 8.15814 21.619 7.96875 21.619 7.69886V7.64205C21.619 6.94129 21.4272 6.39678 21.0437 6.00852C20.6649 5.62027 20.0896 5.42614 19.3178 5.42614C18.5176 5.42614 17.8903 5.60133 17.4357 5.9517C16.9812 6.30208 16.6616 6.67614 16.4769 7.07386L14.886 6.50568C15.1701 5.8428 15.5489 5.3267 16.0224 4.95739C16.5006 4.58333 17.0214 4.32292 17.5849 4.17614C18.1531 4.02462 18.7118 3.94886 19.261 3.94886C19.6114 3.94886 20.0138 3.99148 20.4684 4.0767C20.9277 4.1572 21.3704 4.32528 21.7965 4.58097C22.2274 4.83665 22.5849 5.22254 22.869 5.73864C23.1531 6.25473 23.2951 6.94602 23.2951 7.8125V15H21.619V13.5227H21.5337C21.4201 13.7595 21.2307 14.0128 20.9656 14.2827C20.7004 14.5526 20.3477 14.7822 19.9073 14.9716C19.467 15.161 18.9296 15.2557 18.2951 15.2557ZM18.5508 13.75C19.2137 13.75 19.7724 13.6198 20.2269 13.3594C20.6862 13.099 21.0318 12.7628 21.2638 12.3509C21.5006 11.9389 21.619 11.5057 21.619 11.0511V9.51705C21.5479 9.60227 21.3917 9.6804 21.1502 9.75142C20.9135 9.81771 20.6388 9.87689 20.3263 9.92898C20.0186 9.97633 19.7179 10.0189 19.4244 10.0568C19.1355 10.09 18.9012 10.1184 18.7212 10.142C18.2856 10.1989 17.8784 10.2912 17.4996 10.419C17.1256 10.5421 16.8226 10.7292 16.5906 10.9801C16.3633 11.2263 16.2496 11.5625 16.2496 11.9886C16.2496 12.571 16.4651 13.0114 16.896 13.3097C17.3316 13.6032 17.8832 13.75 18.5508 13.75ZM28.0305 8.4375V15H26.3544V4.09091H27.9737V5.79545H28.1158C28.3714 5.24148 28.7597 4.7964 29.2805 4.46023C29.8014 4.11932 30.4737 3.94886 31.2976 3.94886C32.0362 3.94886 32.6825 4.10038 33.2365 4.40341C33.7905 4.7017 34.2214 5.15625 34.5291 5.76705C34.8369 6.37311 34.9908 7.14015 34.9908 8.06818V15H33.3146V8.18182C33.3146 7.32481 33.0921 6.6572 32.647 6.17898C32.2019 5.69602 31.5911 5.45455 30.8146 5.45455C30.2796 5.45455 29.8014 5.57055 29.38 5.80256C28.9633 6.03456 28.6342 6.37311 28.3928 6.81818C28.1513 7.26326 28.0305 7.80303 28.0305 8.4375ZM42.4854 15.2273C41.4627 15.2273 40.582 14.9858 39.8434 14.5028C39.1048 14.0199 38.5366 13.3546 38.1388 12.5071C37.7411 11.6596 37.5423 10.6913 37.5423 9.60227C37.5423 8.49432 37.7459 7.51657 38.1531 6.66903C38.565 5.81676 39.1379 5.15152 39.8718 4.6733C40.6104 4.19034 41.4722 3.94886 42.457 3.94886C43.2241 3.94886 43.9154 4.09091 44.5309 4.375C45.1464 4.65909 45.6507 5.05682 46.0437 5.56818C46.4367 6.07955 46.6805 6.67614 46.7752 7.35795H45.0991C44.9712 6.8608 44.6871 6.42045 44.2468 6.03693C43.8112 5.64867 43.2241 5.45455 42.4854 5.45455C41.832 5.45455 41.2591 5.625 40.7667 5.96591C40.279 6.30208 39.8978 6.77794 39.6232 7.39347C39.3533 8.00426 39.2184 8.72159 39.2184 9.54545C39.2184 10.3883 39.351 11.1222 39.6161 11.7472C39.886 12.3722 40.2648 12.8575 40.7525 13.2031C41.2449 13.5488 41.8226 13.7216 42.4854 13.7216C42.921 13.7216 43.3164 13.6458 43.6715 13.4943C44.0266 13.3428 44.3273 13.125 44.5735 12.8409C44.8197 12.5568 44.9949 12.2159 45.0991 11.8182H46.7752C46.6805 12.4621 46.4461 13.0421 46.0721 13.5582C45.7028 14.0696 45.2127 14.4768 44.6019 14.7798C43.9959 15.0781 43.2904 15.2273 42.4854 15.2273ZM53.7994 15.2273C52.7482 15.2273 51.8415 14.9953 51.0792 14.5312C50.3216 14.0625 49.7369 13.4091 49.3249 12.571C48.9177 11.7282 48.7141 10.7481 48.7141 9.63068C48.7141 8.51326 48.9177 7.52841 49.3249 6.67614C49.7369 5.81913 50.3098 5.15152 51.0437 4.6733C51.7823 4.19034 52.6441 3.94886 53.6289 3.94886C54.1971 3.94886 54.7582 4.04356 55.3121 4.23295C55.8661 4.42235 56.3704 4.73011 56.8249 5.15625C57.2795 5.57765 57.6417 6.13636 57.9116 6.83239C58.1815 7.52841 58.3164 8.38542 58.3164 9.40341V10.1136H49.9073V8.66477H56.6119C56.6119 8.04924 56.4888 7.5 56.2425 7.01705C56.0011 6.53409 55.6554 6.15294 55.2056 5.87358C54.7605 5.59422 54.235 5.45455 53.6289 5.45455C52.9613 5.45455 52.3836 5.62026 51.896 5.9517C51.413 6.27841 51.0413 6.70455 50.7809 7.23011C50.5205 7.75568 50.3903 8.31913 50.3903 8.92045V9.88636C50.3903 10.7102 50.5323 11.4086 50.8164 11.9815C51.1052 12.5497 51.5053 12.983 52.0167 13.2812C52.5281 13.5748 53.1223 13.7216 53.7994 13.7216C54.2397 13.7216 54.6374 13.66 54.9925 13.5369C55.3524 13.4091 55.6625 13.2197 55.9229 12.9688C56.1834 12.7131 56.3846 12.3958 56.5266 12.017L58.146 12.4716C57.9755 13.0208 57.689 13.5038 57.2866 13.9205C56.8841 14.3324 56.387 14.6544 55.7951 14.8864C55.2032 15.1136 54.538 15.2273 53.7994 15.2273ZM62.5423 0.454545V15H60.8661V0.454545H62.5423Z" fill="black"/>
</svg>
