<svg width="120" height="120" viewBox="0 0 120 120" fill="none" xmlns="http://www.w3.org/2000/svg">
<g filter="url(#filter0_d_303_80)">
<path d="M28.525 33.5532C26.575 35.5032 26.575 38.6532 28.525 40.6032L47.925 60.0032L28.525 79.4032C26.575 81.3532 26.575 84.5032 28.525 86.4532C30.475 88.4032 33.625 88.4032 35.575 86.4532L58.525 63.5032C60.475 61.5532 60.475 58.4032 58.525 56.4532L35.625 33.5532C33.675 31.6032 30.475 31.6032 28.525 33.5532Z" fill="white"/>
<path d="M61.475 33.5532C59.525 35.5032 59.525 38.6532 61.475 40.6032L80.875 60.0032L61.475 79.4032C59.525 81.3532 59.525 84.5032 61.475 86.4532C63.425 88.4032 66.575 88.4032 68.525 86.4532L91.475 63.5032C93.425 61.5532 93.425 58.4032 91.475 56.4532L68.525 33.5032C66.625 31.6032 63.425 31.6032 61.475 33.5532Z" fill="white"/>
</g>
<defs>
<filter id="filter0_d_303_80" x="17.0625" y="26.0844" width="85.875" height="75.8313" filterUnits="userSpaceOnUse" color-interpolation-filters="sRGB">
<feFlood flood-opacity="0" result="BackgroundImageFix"/>
<feColorMatrix in="SourceAlpha" type="matrix" values="0 0 0 0 0 0 0 0 0 0 0 0 0 0 0 0 0 0 127 0" result="hardAlpha"/>
<feOffset dy="4"/>
<feGaussianBlur stdDeviation="5"/>
<feComposite in2="hardAlpha" operator="out"/>
<feColorMatrix type="matrix" values="0 0 0 0 0 0 0 0 0 0 0 0 0 0 0 0 0 0 0.25 0"/>
<feBlend mode="normal" in2="BackgroundImageFix" result="effect1_dropShadow_303_80"/>
<feBlend mode="normal" in="SourceGraphic" in2="effect1_dropShadow_303_80" result="shape"/>
</filter>
</defs>
</svg>
