<svg width="50" height="50" viewBox="0 0 50 50" fill="none" xmlns="http://www.w3.org/2000/svg">
<g clip-path="url(#clip0_50_19)">
<g filter="url(#filter0_d_50_19)">
<path d="M25 12.5C27.2917 12.5 29.1667 14.375 29.1667 16.6667C29.1667 18.9583 27.2917 20.8333 25 20.8333C22.7083 20.8333 20.8333 18.9583 20.8333 16.6667C20.8333 14.375 22.7083 12.5 25 12.5ZM25 33.3333C30.625 33.3333 37.0833 36.0208 37.5 37.5H12.5C12.9792 36 19.3958 33.3333 25 33.3333ZM25 8.33334C20.3958 8.33334 16.6667 12.0625 16.6667 16.6667C16.6667 21.2708 20.3958 25 25 25C29.6042 25 33.3333 21.2708 33.3333 16.6667C33.3333 12.0625 29.6042 8.33334 25 8.33334ZM25 29.1667C19.4375 29.1667 8.33333 31.9583 8.33333 37.5V41.6667H41.6667V37.5C41.6667 31.9583 30.5625 29.1667 25 29.1667Z" fill="white"/>
</g>
</g>
<defs>
<filter id="filter0_d_50_19" x="-1.66667" y="0.333344" width="53.3333" height="53.3333" filterUnits="userSpaceOnUse" color-interpolation-filters="sRGB">
<feFlood flood-opacity="0" result="BackgroundImageFix"/>
<feColorMatrix in="SourceAlpha" type="matrix" values="0 0 0 0 0 0 0 0 0 0 0 0 0 0 0 0 0 0 127 0" result="hardAlpha"/>
<feOffset dy="2"/>
<feGaussianBlur stdDeviation="5"/>
<feComposite in2="hardAlpha" operator="out"/>
<feColorMatrix type="matrix" values="0 0 0 0 0 0 0 0 0 0 0 0 0 0 0 0 0 0 0.25 0"/>
<feBlend mode="normal" in2="BackgroundImageFix" result="effect1_dropShadow_50_19"/>
<feBlend mode="normal" in="SourceGraphic" in2="effect1_dropShadow_50_19" result="shape"/>
</filter>
<clipPath id="clip0_50_19">
<rect width="50" height="50" fill="white"/>
</clipPath>
</defs>
</svg>
