<svg width="73" height="61" viewBox="0 0 73 61" fill="none" xmlns="http://www.w3.org/2000/svg">
<path d="M56.4157 59.8915C55.0669 61.2403 52.8882 61.2403 51.5394 59.8915L44.2078 52.5598C42.859 51.2111 42.859 49.0323 44.2078 47.6836C45.5565 46.3348 47.7353 46.3348 49.084 47.6836L53.9602 52.5598L66.2027 40.3173C67.5515 38.9686 69.7302 38.9686 71.079 40.3173C72.4277 41.6661 72.4277 43.8448 71.079 45.1936L56.4157 59.8915ZM35.7694 55.4303H7.82609C4.02192 55.4303 0.909424 52.3178 0.909424 48.5136V7.01359C0.909424 3.20942 4.02192 0.0969238 7.82609 0.0969238H63.1594C66.9636 0.0969238 70.0761 3.20942 70.0761 7.01359V30.1153C66.929 28.6282 63.4361 27.7636 59.7011 27.7636C46.3173 27.7636 35.4928 38.5882 35.4928 51.9719C35.4928 53.1478 35.5965 54.289 35.7694 55.4303ZM33.6598 30.0807C34.7665 30.7723 36.219 30.7723 37.3257 30.0807L61.7761 14.7948C62.6407 14.2415 63.1594 13.3078 63.1594 12.3048C63.1594 9.98776 60.6348 8.60442 58.6636 9.81484L35.4928 24.3053L12.3219 9.81484C10.3507 8.60442 7.82609 9.98776 7.82609 12.3048C7.82609 13.3078 8.34484 14.2415 9.20942 14.7948L33.6598 30.0807Z" fill="url(#paint0_linear_496_74)"/>
<defs>
<linearGradient id="paint0_linear_496_74" x1="36.5" y1="0.0969238" x2="36.5" y2="60.9031" gradientUnits="userSpaceOnUse">
<stop stop-color="#9ACEFD"/>
<stop offset="1" stop-color="#001A4D"/>
</linearGradient>
</defs>
</svg>
