<svg width="86" height="76" viewBox="0 0 86 76" fill="none" xmlns="http://www.w3.org/2000/svg">
<path d="M48.8503 0.507496C27.6419 -0.075837 10.2669 16.9242 10.2669 38.0075H2.8086C0.933599 38.0075 0.0169322 40.2575 1.35027 41.5492L12.9753 53.1742C13.8086 54.0075 15.1003 54.0075 15.9336 53.1742L27.6003 41.5492C28.8503 40.2575 27.9336 38.0075 26.0586 38.0075H18.6003C18.6003 21.7992 31.9336 8.59083 48.1836 8.84083C63.6419 9.04916 76.6836 22.0908 76.9336 37.5908C77.1836 53.8825 64.0169 67.1742 47.7669 67.1742C41.1419 67.1742 35.0586 64.9658 30.1419 61.2158C28.4753 59.9658 26.1419 60.0908 24.6836 61.5908C22.8919 63.3825 23.0586 66.3408 25.0586 67.8408C31.3503 72.6325 39.2253 75.5075 47.7669 75.5075C68.8503 75.5075 85.8503 58.1325 85.2669 36.9658C84.7253 17.3825 68.3919 1.04916 48.8503 0.507496ZM56.1003 33.8408V29.6742C56.1003 25.0908 52.3503 21.3408 47.7669 21.3408C43.1836 21.3408 39.4336 25.0908 39.4336 29.6742V33.8408C37.1419 33.8408 35.2669 35.7158 35.2669 38.0075V50.5075C35.2669 52.7992 37.1419 54.6742 39.4336 54.6742H56.1003C58.3919 54.6742 60.2669 52.7992 60.2669 50.5075V38.0075C60.2669 35.7158 58.3919 33.8408 56.1003 33.8408ZM51.9336 33.8408H43.6003V29.6742C43.6003 27.3825 45.4753 25.5075 47.7669 25.5075C50.0586 25.5075 51.9336 27.3825 51.9336 29.6742V33.8408Z" fill="url(#paint0_linear_492_631)"/>
<defs>
<linearGradient id="paint0_linear_492_631" x1="43.0002" y1="0.49292" x2="43.0002" y2="75.5075" gradientUnits="userSpaceOnUse">
<stop stop-color="#9ACEFD"/>
<stop offset="1" stop-color="#001A4D"/>
</linearGradient>
</defs>
</svg>
