<svg width="20" height="20" viewBox="0 0 20 20" fill="none" xmlns="http://www.w3.org/2000/svg">
<path d="M14.1667 1.66666C13.7083 1.66666 13.3333 2.04166 13.3333 2.49999V3.33332H6.66667V2.49999C6.66667 2.04166 6.29167 1.66666 5.83333 1.66666C5.375 1.66666 5 2.04166 5 2.49999V3.33332H4.16667C3.24167 3.33332 2.50833 4.08332 2.50833 4.99999L2.5 16.6667C2.5 17.5833 3.24167 18.3333 4.16667 18.3333H15.8333C16.75 18.3333 17.5 17.5833 17.5 16.6667V4.99999C17.5 4.08332 16.75 3.33332 15.8333 3.33332H15V2.49999C15 2.04166 14.625 1.66666 14.1667 1.66666ZM15.8333 16.6667H4.16667V8.33332H15.8333V16.6667ZM9.16667 10.8333C9.16667 10.375 9.54167 9.99999 10 9.99999C10.4583 9.99999 10.8333 10.375 10.8333 10.8333C10.8333 11.2917 10.4583 11.6667 10 11.6667C9.54167 11.6667 9.16667 11.2917 9.16667 10.8333ZM5.83333 10.8333C5.83333 10.375 6.20833 9.99999 6.66667 9.99999C7.125 9.99999 7.5 10.375 7.5 10.8333C7.5 11.2917 7.125 11.6667 6.66667 11.6667C6.20833 11.6667 5.83333 11.2917 5.83333 10.8333ZM12.5 10.8333C12.5 10.375 12.875 9.99999 13.3333 9.99999C13.7917 9.99999 14.1667 10.375 14.1667 10.8333C14.1667 11.2917 13.7917 11.6667 13.3333 11.6667C12.875 11.6667 12.5 11.2917 12.5 10.8333ZM9.16667 14.1667C9.16667 13.7083 9.54167 13.3333 10 13.3333C10.4583 13.3333 10.8333 13.7083 10.8333 14.1667C10.8333 14.625 10.4583 15 10 15C9.54167 15 9.16667 14.625 9.16667 14.1667ZM5.83333 14.1667C5.83333 13.7083 6.20833 13.3333 6.66667 13.3333C7.125 13.3333 7.5 13.7083 7.5 14.1667C7.5 14.625 7.125 15 6.66667 15C6.20833 15 5.83333 14.625 5.83333 14.1667ZM12.5 14.1667C12.5 13.7083 12.875 13.3333 13.3333 13.3333C13.7917 13.3333 14.1667 13.7083 14.1667 14.1667C14.1667 14.625 13.7917 15 13.3333 15C12.875 15 12.5 14.625 12.5 14.1667Z" fill="black" fill-opacity="0.4"/>
</svg>
