<svg width="58" height="68" viewBox="0 0 58 68" fill="none" xmlns="http://www.w3.org/2000/svg">
<g clip-path="url(#clip0_50_49)" filter="url(#filter0_d_50_49)">
<g filter="url(#filter1_d_50_49)">
<path d="M47.8853 22.6956H37.4044C34.9985 22.6956 33.0404 20.7449 33.0404 18.339V8.48529C32.8169 8.46103 17.1507 8.47059 16.9265 8.47059C16.0263 8.4702 15.1348 8.64724 14.3031 8.99158C13.4713 9.33591 12.7156 9.8408 12.0791 10.4774C11.4426 11.114 10.9378 11.8697 10.5935 12.7015C10.2493 13.5333 10.0723 14.4248 10.0728 15.325V48.6691C10.0728 52.4559 13.139 55.5301 16.9257 55.5301H41.0706C44.85 55.5301 47.9243 52.4566 47.9243 48.6691C47.9243 48.2132 47.9485 23.1449 47.8868 22.6956H47.8853ZM15.4162 14.6544H29.2779C29.4792 14.6544 29.6722 14.7344 29.8145 14.8767C29.9568 15.019 30.0368 15.212 30.0368 15.4132C30.0368 15.6145 29.9568 15.8075 29.8145 15.9498C29.6722 16.0921 29.4792 16.1721 29.2779 16.1721H15.4154C15.2142 16.1721 15.0212 16.0921 14.8789 15.9498C14.7366 15.8075 14.6566 15.6145 14.6566 15.4132C14.6566 15.212 14.7366 15.019 14.8789 14.8767C15.0212 14.7344 15.2142 14.6544 15.4154 14.6544H15.4162ZM15.4162 20.2412C15.3165 20.2412 15.2179 20.2215 15.1258 20.1834C15.0337 20.1453 14.9501 20.0894 14.8796 20.0189C14.8091 19.9485 14.7533 19.8648 14.7151 19.7727C14.677 19.6807 14.6574 19.582 14.6574 19.4824C14.6574 19.3827 14.677 19.284 14.7151 19.192C14.7533 19.0999 14.8091 19.0162 14.8796 18.9458C14.9501 18.8753 15.0337 18.8194 15.1258 18.7813C15.2179 18.7432 15.3165 18.7235 15.4162 18.7235H29.2779C29.3776 18.7235 29.4763 18.7432 29.5683 18.7813C29.6604 18.8194 29.744 18.8753 29.8145 18.9458C29.885 19.0162 29.9409 19.0999 29.979 19.192C30.0171 19.284 30.0368 19.3827 30.0368 19.4824C30.0368 19.582 30.0171 19.6807 29.979 19.7727C29.9409 19.8648 29.885 19.9485 29.8145 20.0189C29.744 20.0894 29.6604 20.1453 29.5683 20.1834C29.4763 20.2215 29.3776 20.2412 29.2779 20.2412H15.4154H15.4162ZM29.0015 48.6382C22.9294 48.6382 18.0184 43.7199 18.0184 37.6559C18.0184 31.5985 22.9294 26.6801 29.0015 26.6801C35.0581 26.6801 39.9765 31.5993 39.9765 37.6559C39.9765 43.7199 35.0588 48.6382 29.0015 48.6382Z" fill="white"/>
</g>
<g filter="url(#filter2_d_50_49)">
<path d="M37.4007 21.1809H47.5743C47.2137 20.1208 46.6016 19.1638 45.7904 18.3919L37.3632 10.3574C36.5697 9.60538 35.6083 9.05336 34.5588 8.74706V18.339C34.5592 19.0926 34.8588 19.8152 35.3916 20.3481C35.9245 20.881 36.6471 21.1805 37.4007 21.1809Z" fill="white"/>
</g>
<path d="M30.2875 35.375C29.9375 34.6375 29.1875 34.125 28.3125 34.125H25.5V32.875H33V34.125H30.9625C31.2625 34.4875 31.4875 34.9125 31.6188 35.375H33V36.625H31.7375C31.5812 38.375 30.1062 39.75 28.3125 39.75H27.8563L32.0625 44.125H30.3312L26.125 39.75V38.5H28.3125C29.4125 38.5 30.325 37.6875 30.475 36.625H25.5V35.375H30.2875Z" fill="white"/>
</g>
<defs>
<filter id="filter0_d_50_49" x="-6" y="-1" width="70" height="70" filterUnits="userSpaceOnUse" color-interpolation-filters="sRGB">
<feFlood flood-opacity="0" result="BackgroundImageFix"/>
<feColorMatrix in="SourceAlpha" type="matrix" values="0 0 0 0 0 0 0 0 0 0 0 0 0 0 0 0 0 0 127 0" result="hardAlpha"/>
<feOffset dy="2"/>
<feGaussianBlur stdDeviation="5"/>
<feComposite in2="hardAlpha" operator="out"/>
<feColorMatrix type="matrix" values="0 0 0 0 0 0 0 0 0 0 0 0 0 0 0 0 0 0 0.25 0"/>
<feBlend mode="normal" in2="BackgroundImageFix" result="effect1_dropShadow_50_49"/>
<feBlend mode="normal" in="SourceGraphic" in2="effect1_dropShadow_50_49" result="shape"/>
</filter>
<filter id="filter1_d_50_49" x="0.072794" y="0.468731" width="57.8562" height="67.0614" filterUnits="userSpaceOnUse" color-interpolation-filters="sRGB">
<feFlood flood-opacity="0" result="BackgroundImageFix"/>
<feColorMatrix in="SourceAlpha" type="matrix" values="0 0 0 0 0 0 0 0 0 0 0 0 0 0 0 0 0 0 127 0" result="hardAlpha"/>
<feOffset dy="2"/>
<feGaussianBlur stdDeviation="5"/>
<feComposite in2="hardAlpha" operator="out"/>
<feColorMatrix type="matrix" values="0 0 0 0 0 0 0 0 0 0 0 0 0 0 0 0 0 0 0.25 0"/>
<feBlend mode="normal" in2="BackgroundImageFix" result="effect1_dropShadow_50_49"/>
<feBlend mode="normal" in="SourceGraphic" in2="effect1_dropShadow_50_49" result="shape"/>
</filter>
<filter id="filter2_d_50_49" x="24.5588" y="0.747059" width="33.0154" height="32.4338" filterUnits="userSpaceOnUse" color-interpolation-filters="sRGB">
<feFlood flood-opacity="0" result="BackgroundImageFix"/>
<feColorMatrix in="SourceAlpha" type="matrix" values="0 0 0 0 0 0 0 0 0 0 0 0 0 0 0 0 0 0 127 0" result="hardAlpha"/>
<feOffset dy="2"/>
<feGaussianBlur stdDeviation="5"/>
<feComposite in2="hardAlpha" operator="out"/>
<feColorMatrix type="matrix" values="0 0 0 0 0 0 0 0 0 0 0 0 0 0 0 0 0 0 0.25 0"/>
<feBlend mode="normal" in2="BackgroundImageFix" result="effect1_dropShadow_50_49"/>
<feBlend mode="normal" in="SourceGraphic" in2="effect1_dropShadow_50_49" result="shape"/>
</filter>
<clipPath id="clip0_50_49">
<rect width="50" height="50" fill="white" transform="translate(4 7)"/>
</clipPath>
</defs>
</svg>
