<svg width="220" height="220" viewBox="0 0 220 220" fill="none" xmlns="http://www.w3.org/2000/svg">
<g filter="url(#filter0_f_167_92)">
<circle cx="110" cy="110" r="90" fill="url(#paint0_linear_167_92)" fill-opacity="0.78"/>
</g>
<circle cx="110" cy="110" r="75" fill="url(#paint1_linear_167_92)"/>
<g filter="url(#filter1_d_167_92)">
<path d="M141.475 136.447C143.425 134.497 143.425 131.347 141.475 129.397L122.075 109.997L141.475 90.5968C143.425 88.6468 143.425 85.4968 141.475 83.5468C139.525 81.5968 136.375 81.5968 134.425 83.5468L111.475 106.497C109.525 108.447 109.525 111.597 111.475 113.547L134.375 136.447C136.325 138.397 139.525 138.397 141.475 136.447Z" fill="white"/>
<path d="M108.525 136.447C110.475 134.497 110.475 131.347 108.525 129.397L89.1251 109.997L108.525 90.5968C110.475 88.6468 110.475 85.4968 108.525 83.5468C106.575 81.5968 103.425 81.5968 101.475 83.5468L78.5251 106.497C76.5751 108.447 76.5751 111.597 78.5251 113.547L101.475 136.497C103.375 138.397 106.575 138.397 108.525 136.447Z" fill="white"/>
</g>
<defs>
<filter id="filter0_f_167_92" x="0" y="0" width="220" height="220" filterUnits="userSpaceOnUse" color-interpolation-filters="sRGB">
<feFlood flood-opacity="0" result="BackgroundImageFix"/>
<feBlend mode="normal" in="SourceGraphic" in2="BackgroundImageFix" result="shape"/>
<feGaussianBlur stdDeviation="10" result="effect1_foregroundBlur_167_92"/>
</filter>
<filter id="filter1_d_167_92" x="67.0626" y="76.0843" width="85.875" height="75.8313" filterUnits="userSpaceOnUse" color-interpolation-filters="sRGB">
<feFlood flood-opacity="0" result="BackgroundImageFix"/>
<feColorMatrix in="SourceAlpha" type="matrix" values="0 0 0 0 0 0 0 0 0 0 0 0 0 0 0 0 0 0 127 0" result="hardAlpha"/>
<feOffset dy="4"/>
<feGaussianBlur stdDeviation="5"/>
<feComposite in2="hardAlpha" operator="out"/>
<feColorMatrix type="matrix" values="0 0 0 0 0 0 0 0 0 0 0 0 0 0 0 0 0 0 0.25 0"/>
<feBlend mode="normal" in2="BackgroundImageFix" result="effect1_dropShadow_167_92"/>
<feBlend mode="normal" in="SourceGraphic" in2="effect1_dropShadow_167_92" result="shape"/>
</filter>
<linearGradient id="paint0_linear_167_92" x1="20" y1="20" x2="200" y2="200" gradientUnits="userSpaceOnUse">
<stop stop-color="#98CDFD" stop-opacity="0.7"/>
<stop offset="1" stop-color="#00359A" stop-opacity="0.7"/>
</linearGradient>
<linearGradient id="paint1_linear_167_92" x1="35" y1="35" x2="185" y2="185" gradientUnits="userSpaceOnUse">
<stop stop-color="#98CDFD"/>
<stop offset="1" stop-color="#00359A"/>
</linearGradient>
</defs>
</svg>
