<svg width="20" height="20" viewBox="0 0 20 20" fill="none" xmlns="http://www.w3.org/2000/svg">
<circle cx="10" cy="10" r="10" fill="#006F04"/>
<g clip-path="url(#clip0_1183_429)">
<path d="M10.1523 9.99366C11.1866 9.99366 12.1003 10.2411 12.8427 10.5647C13.5279 10.8693 13.9594 11.5546 13.9594 12.297V12.6904C13.9594 13.0393 13.6739 13.3249 13.3249 13.3249H6.97971C6.63073 13.3249 6.34519 13.0393 6.34519 12.6904V12.3033C6.34519 11.5546 6.77666 10.8693 7.46194 10.5711C8.20433 10.2411 9.11803 9.99366 10.1523 9.99366ZM5.07616 10.1523C5.77413 10.1523 6.34519 9.58122 6.34519 8.88325C6.34519 8.18528 5.77413 7.61422 5.07616 7.61422C4.37819 7.61422 3.80712 8.18528 3.80712 8.88325C3.80712 9.58122 4.37819 10.1523 5.07616 10.1523ZM5.79316 10.8503C5.55839 10.8122 5.32362 10.7868 5.07616 10.7868C4.44798 10.7868 3.85154 10.9201 3.3122 11.1548C2.84265 11.3579 2.53809 11.8147 2.53809 12.3287V12.6904C2.53809 13.0393 2.82362 13.3249 3.1726 13.3249H5.39342V12.3033C5.39342 11.7767 5.53935 11.2817 5.79316 10.8503ZM15.2284 10.1523C15.9264 10.1523 16.4975 9.58122 16.4975 8.88325C16.4975 8.18528 15.9264 7.61422 15.2284 7.61422C14.5305 7.61422 13.9594 8.18528 13.9594 8.88325C13.9594 9.58122 14.5305 10.1523 15.2284 10.1523ZM17.7665 12.3287C17.7665 11.8147 17.4619 11.3579 16.9924 11.1548C16.4531 10.9201 15.8566 10.7868 15.2284 10.7868C14.981 10.7868 14.7462 10.8122 14.5114 10.8503C14.7652 11.2817 14.9112 11.7767 14.9112 12.3033V13.3249H17.132C17.481 13.3249 17.7665 13.0393 17.7665 12.6904V12.3287ZM10.1523 5.71066C11.2056 5.71066 12.0559 6.56092 12.0559 7.61422C12.0559 8.66752 11.2056 9.51777 10.1523 9.51777C9.099 9.51777 8.24875 8.66752 8.24875 7.61422C8.24875 6.56092 9.099 5.71066 10.1523 5.71066Z" fill="white"/>
</g>
<defs>
<clipPath id="clip0_1183_429">
<rect width="15.2284" height="15.2284" fill="white" transform="translate(2.53809 1.90356)"/>
</clipPath>
</defs>
</svg>
