<svg width="14" height="14" viewBox="0 0 14 14" fill="none" xmlns="http://www.w3.org/2000/svg">
<path d="M4.66667 1.16666C4.025 1.16666 3.5 1.69166 3.5 2.33332L3.50583 4.18832C3.50583 4.49749 3.62833 4.78916 3.84417 5.01082L5.83333 6.99999L3.84417 9.00082C3.62833 9.21666 3.50583 9.51416 3.50583 9.82332L3.5 11.6667C3.5 12.3083 4.025 12.8333 4.66667 12.8333H9.33333C9.975 12.8333 10.5 12.3083 10.5 11.6667V9.82332C10.5 9.51416 10.3775 9.21666 10.1617 9.00082L8.16667 6.99999L10.1558 5.01666C10.3775 4.79499 10.5 4.49749 10.5 4.18832V2.33332C10.5 1.69166 9.975 1.16666 9.33333 1.16666H4.66667ZM9.33333 9.86416V11.0833C9.33333 11.4042 9.07083 11.6667 8.75 11.6667H5.25C4.92917 11.6667 4.66667 11.4042 4.66667 11.0833V9.86416C4.66667 9.70666 4.73083 9.56082 4.83583 9.44999L7 7.29166L9.16417 9.45582C9.26917 9.56082 9.33333 9.71249 9.33333 9.86416Z" fill="white"/>
</svg>
