<svg width="40" height="40" viewBox="0 0 40 40" fill="none" xmlns="http://www.w3.org/2000/svg">
<path d="M16.6692 5.83333H23.3359C24.2525 5.83333 25.0025 5.08333 25.0025 4.16667C25.0025 3.25 24.2525 2.5 23.3359 2.5H16.6692C15.7525 2.5 15.0025 3.25 15.0025 4.16667C15.0025 5.08333 15.7525 5.83333 16.6692 5.83333Z" fill="url(#paint0_linear_166_29)"/>
<path d="M31.7192 13.15L32.9692 11.9C33.6025 11.2667 33.6192 10.2167 32.9692 9.56667L32.9525 9.55C32.3025 8.9 31.2692 8.91667 30.6192 9.55L29.3692 10.8C26.7859 8.73333 23.5359 7.5 20.0025 7.5C12.0025 7.5 5.20255 14.1 5.00255 22.1C4.78588 30.5667 11.5692 37.5 20.0025 37.5C28.3025 37.5 35.0025 30.7833 35.0025 22.5C35.0025 18.9667 33.7692 15.7167 31.7192 13.15ZM21.6692 22.5C21.6692 23.4167 20.9192 24.1667 20.0025 24.1667C19.0859 24.1667 18.3359 23.4167 18.3359 22.5V15.8333C18.3359 14.9167 19.0859 14.1667 20.0025 14.1667C20.9192 14.1667 21.6692 14.9167 21.6692 15.8333V22.5Z" fill="url(#paint1_linear_166_29)"/>
<defs>
<linearGradient id="paint0_linear_166_29" x1="5.37247" y1="2.93755" x2="39.0969" y2="31.849" gradientUnits="userSpaceOnUse">
<stop stop-color="#9ACEFD"/>
<stop offset="1" stop-color="#00359A"/>
</linearGradient>
<linearGradient id="paint1_linear_166_29" x1="5.37247" y1="2.93755" x2="39.0969" y2="31.849" gradientUnits="userSpaceOnUse">
<stop stop-color="#9ACEFD"/>
<stop offset="1" stop-color="#00359A"/>
</linearGradient>
</defs>
</svg>
