<svg width="40" height="40" viewBox="0 0 40 40" fill="none" xmlns="http://www.w3.org/2000/svg">
<path d="M34.6558 16.6684H21.4225C19.8392 12.1851 15.1558 9.1684 9.95584 10.2017C6.13917 10.9684 3.03917 14.0351 2.23917 17.8351C0.872507 24.3017 5.77251 30.0017 12.0058 30.0017C16.3558 30.0017 20.0558 27.2184 21.4225 23.3351H22.0058L24.1558 25.4851C24.8058 26.1351 25.8558 26.1351 26.5058 25.4851L28.6725 23.3351L30.8225 25.4851C31.4725 26.1351 32.5392 26.1351 33.1892 25.4851L37.5058 21.1351C38.1558 20.4851 38.1558 19.4184 37.4892 18.7684L35.8392 17.1517C35.5058 16.8351 35.0892 16.6684 34.6558 16.6684ZM12.0058 25.0017C9.25584 25.0017 7.00584 22.7517 7.00584 20.0017C7.00584 17.2517 9.25584 15.0017 12.0058 15.0017C14.7558 15.0017 17.0058 17.2517 17.0058 20.0017C17.0058 22.7517 14.7558 25.0017 12.0058 25.0017Z" fill="#A4A4A4"/>
</svg>
